<svg version="1.1" xmlns="http://www.w3.org/2000/svg" style="display: block;" viewBox="0 0 2048 2048" width="1024" height="1024" preserveAspectRatio="none"><defs><linearGradient id="Gradient1" gradientUnits="userSpaceOnUse" x1="606.961" y1="1199.3" x2="1561.71" y2="581.409"><stop class="stop0" offset="0" stop-opacity="1" stop-color="rgb(255,187,1)"/><stop class="stop1" offset="1" stop-opacity="1" stop-color="rgb(237,44,27)"/></linearGradient></defs><path transform="translate(0,0)" fill="url(#Gradient1)" d="M 1213.93 172.791 C 1220.73 168.733 1286.87 170.203 1298.45 171.033 C 1305.98 177.259 1335.26 222.335 1343.63 233.612 C 1333.21 255.521 1319.17 276.361 1308.95 297.807 C 1307.3 309.251 1310.55 312.945 1321.75 313.841 C 1335.09 313.671 1364.41 312.634 1376.31 314.016 C 1383.87 321.915 1392.86 338.535 1399.66 348.106 C 1424.24 382.695 1447.03 419.369 1471.69 453.858 C 1482.38 468.142 1494.22 486.646 1504.36 501.632 L 1567.68 594.979 C 1600.73 641.874 1631.72 690.585 1664.56 737.666 C 1667.97 742.54 1672.64 749.072 1675.3 754.247 C 1681.04 762.506 1687.21 772.189 1692.92 780.117 C 1659.49 835.789 1624.67 889.706 1590.37 944.762 C 1576.87 966.767 1563.23 988.684 1549.44 1010.51 C 1543.99 1019.06 1535.97 1032.37 1529.92 1040.09 C 1502.72 1041.1 1473.5 1039.26 1447.4 1040.68 C 1441.27 1049.05 1392.07 1123.47 1394.45 1130.11 C 1402.64 1153 1431.07 1181.69 1443.48 1204.64 C 1435.16 1217.38 1414.87 1250.29 1405.54 1260.02 L 1347.93 1259.99 C 1336.88 1259.99 1322.57 1259.61 1311.9 1260.84 C 1305.93 1266.24 1304.3 1268.37 1301.06 1275.75 C 1303.14 1290.41 1321.71 1319.72 1330.04 1334.27 C 1322.39 1347.25 1299.21 1388.27 1290.62 1398.16 C 1281.19 1398.31 1261.33 1398.76 1252.34 1397.91 C 1243.58 1385.04 1235.16 1364.61 1228.52 1350.2 L 1192.81 1272.06 C 1190.11 1266.12 1180.28 1242.6 1177.64 1238.73 C 1169.15 1226.25 1150.47 1208.14 1139.33 1196.61 L 1091.51 1146.4 L 1056.98 1110.07 C 1050.65 1103.3 1030.2 1075.53 1022.43 1087.77 C 1015.92 1098.01 1007.43 1111.81 1002.67 1123.01 C 1010.5 1135.85 1044.16 1169.59 1055.55 1182.53 C 1063.46 1191.51 1091.11 1222.21 1098.41 1227.96 L 1099.85 1229.11 C 1106.92 1228.87 1110.47 1229.23 1115.64 1234.76 C 1124.31 1244.03 1137.44 1260.48 1144.25 1270.91 C 1138.05 1281.21 1129.7 1293.94 1124.11 1304.1 C 1126.2 1308.42 1129.48 1313.71 1127.5 1318.58 C 1125.22 1324.17 1057.88 1406.64 1050.62 1414.01 C 1038.45 1414.79 1022.63 1415.12 1010.3 1414.65 C 1004.99 1406.91 988.584 1379.45 984.621 1370.91 C 990.085 1361.34 996.438 1349.01 1001.98 1339.97 C 1017.62 1339.41 1036.47 1340.08 1051.38 1338.85 C 1060.37 1332.74 1068.58 1323.07 1073.8 1313.65 C 1059.73 1291.75 1035.57 1270.1 1017.38 1248.04 C 997.913 1224.45 967.779 1194.22 949.264 1168.71 C 946.884 1165.43 953.893 1151.54 941.512 1150.51 C 926.501 1149.18 908.762 1149.71 893.615 1149.69 C 858.999 1149.46 824.382 1149.57 789.769 1150.02 C 781.155 1157.35 770.736 1169.79 762.917 1178.52 L 720.262 1226.27 C 716.934 1230.01 703.666 1245.51 700.554 1248.16 C 696.886 1248.73 698.014 1248.57 694.754 1251.37 C 687.729 1239.95 680.092 1236.69 667.443 1233.57 C 655.143 1230.54 626.993 1215.72 617.028 1207.32 C 595.804 1189.44 591.782 1173.03 594.568 1146.57 C 594.932 1142.74 590.812 1139.32 587.591 1137.34 L 589.431 1135.85 L 644.436 1135.74 C 650.121 1128.27 671.561 1088.03 674.395 1079.53 C 655.938 1044.6 628.914 1005.57 609.089 969.774 C 614.021 961.193 627.282 942.976 634.244 936.003 C 671.915 936.747 718.213 937.37 755.631 935.982 L 759.4 932.817 C 769.379 924.55 776.425 914.611 785.635 906.275 C 812.527 881.939 836.463 851.342 862.874 827.111 C 881.255 825.854 914.533 829.567 932.416 824.599 C 934.718 823.659 935.606 819.761 935.773 817.734 C 937.97 791.093 932.566 760.554 935.833 734.251 L 936.008 732.91 C 940.833 725.17 948.626 719.343 956.068 714.286 C 958.986 714.022 961.909 713.816 964.836 713.669 C 996.78 712.284 994.013 762.851 1015.75 780.139 C 1023.59 786.004 1049.95 795.484 1059.6 795.852 C 1090.13 797.015 1129.11 798.139 1159.27 795.831 C 1168.55 780.481 1177.57 761.593 1186.29 745.641 C 1202.39 716.21 1219.02 686.752 1234.43 656.995 C 1264.32 656.994 1306.39 658.175 1335.6 656.09 C 1326.77 640.992 1309.82 610.289 1300.14 596.723 C 1280.74 596.545 1261.33 596.549 1241.93 596.737 C 1231.88 596.775 1217.79 597.381 1208.23 595.804 L 1207.49 595.063 C 1197.68 585.438 1177.99 546.509 1170.85 533.172 C 1187.84 501.925 1210.52 468.318 1228.37 436.182 C 1224.13 425.679 1222.88 419.592 1214.48 412.066 C 1205.76 411.713 1179.7 409.106 1173.15 412.893 C 1169.26 415.139 1105.87 527.442 1098.83 541.408 C 1097.48 544.093 1096.57 546.846 1095.93 549.783 C 1105.96 575.446 1123.81 604.528 1134.03 631.745 C 1120.95 656.315 1109.26 681.491 1096.81 706.431 C 1089.78 718.129 1083.03 740.489 1074.27 750.049 C 1051.65 774.718 1022.79 744.587 1011.08 725.527 C 999.507 706.674 992.506 679.309 980.708 664.139 C 977.939 660.578 915.218 662.016 907.835 662.647 L 906.685 662.755 C 901.258 654.831 894.58 638.038 890.592 628.798 C 882.676 610.593 874.886 592.333 867.222 574.019 C 897.185 534.35 935.806 496.023 964.967 455.648 C 975.101 441.617 987.694 420.766 997.743 405.585 L 1073.61 291.344 C 1082.94 277.301 1101.76 244.961 1110.98 233.858 C 1130.41 233.974 1155.82 234.74 1174.82 232.842 C 1184.58 220.309 1205.89 186.368 1213.93 172.791 z"/><path transform="translate(0,0)" fill="rgb(232,44,30)" d="M 1477.87 609.222 C 1500.37 605.849 1530.99 608.683 1554.45 605.299 C 1559.99 604.5 1562.38 599.415 1565.62 594.913 L 1567.68 594.979 C 1600.73 641.874 1631.72 690.585 1664.56 737.666 C 1667.97 742.54 1672.64 749.072 1675.3 754.247 L 1672.97 754.515 L 1672.96 758.474 L 1673.38 758.656 C 1671.55 764.864 1668.58 776.887 1664.64 781.734 C 1663.61 783 1660.71 782.264 1658.49 782.122 C 1649.36 768.034 1650.08 772.805 1635.51 766.701 C 1633.04 765.671 1634.44 765.343 1630.25 764.952 C 1627.5 761.957 1629.78 762.462 1627.86 757.926 L 1622.22 756.018 C 1621.77 753.401 1622.06 752.324 1622.26 749.666 C 1619.12 745.7 1616 748.93 1614.04 746.927 C 1606.74 739.499 1603.59 724.797 1590.61 728.763 L 1589.03 727.758 L 1589.01 726.051 L 1591.24 725.124 C 1589.53 718.058 1593.69 717.648 1591.96 713.25 C 1578.37 713.203 1575.78 731.549 1566.01 738.547 L 1563.6 736.626 L 1562.01 736.897 C 1558.44 743.808 1558.91 740.776 1560.07 748.256 L 1558.16 749.728 L 1559.65 751.243 C 1552.84 752.125 1538.58 751.744 1531.24 751.687 C 1514.99 751.446 1498.73 751.436 1482.47 751.658 C 1470.7 725.621 1452.9 703.18 1440.06 678.248 C 1443.33 662.807 1457.15 647.359 1464.86 633.2 C 1469.16 625.315 1473.5 616.973 1477.87 609.222 z"/><path transform="translate(0,0)" fill="rgb(232,44,30)" d="M 1321.75 313.841 C 1335.09 313.671 1364.41 312.634 1376.31 314.016 C 1383.87 321.915 1392.86 338.535 1399.66 348.106 C 1424.24 382.695 1447.03 419.369 1471.69 453.858 C 1462.41 460.372 1437.05 513.695 1431.06 525.804 C 1414.43 523.917 1375.22 525.837 1356.4 525.705 C 1351.02 519.351 1314.61 458.864 1311.38 450.895 C 1314.37 442.54 1322.99 428.725 1327.7 420.466 C 1335.41 407.042 1342.6 393.329 1349.27 379.355 C 1344.14 371.932 1322.82 341.319 1323.28 334.082 L 1324.81 333.421 C 1326.54 333.869 1327.75 334.338 1329.32 335.202 C 1332.53 327.794 1329.89 323.162 1333.57 318.078 C 1331.3 316.06 1325 314.746 1321.75 313.841 z"/><path transform="translate(0,0)" fill="rgb(232,44,30)" d="M 1213.93 172.791 C 1220.73 168.733 1286.87 170.203 1298.45 171.033 C 1305.98 177.259 1335.26 222.335 1343.63 233.612 C 1333.21 255.521 1319.17 276.361 1308.95 297.807 L 1307.73 294.495 C 1309.53 285.015 1337.38 241.847 1335.29 236.501 L 1333.22 237.305 C 1328.45 235.233 1334.04 236.013 1330.5 233.625 C 1328.8 237.035 1327.64 239.171 1326.86 242.877 L 1324.72 242.729 C 1321.15 250.531 1310.87 261.778 1305.09 269.29 C 1300.2 269.546 1304.88 264.844 1300.79 261.487 L 1298.63 263.057 C 1290.69 264.687 1279.16 257.99 1272.13 254.211 C 1263.97 257.739 1258.82 250.334 1254.8 253.578 C 1244.17 262.151 1213.46 257.504 1207 267.144 C 1205.55 275.384 1211.67 281.738 1210.85 285.102 L 1209.2 285.717 C 1203.68 277.711 1190.59 255.719 1186.37 247.454 L 1186.81 246.685 C 1189.94 247.866 1192.81 249.515 1195.83 248.669 C 1205.91 234.478 1206.21 216.638 1210.24 200.255 C 1211.75 194.731 1215.58 189.133 1217.65 183.883 C 1219.62 178.866 1222.5 180.109 1223.77 176.897 C 1221.74 175.147 1216.78 173.932 1213.93 172.791 z"/><path transform="translate(0,0)" fill="rgb(254,201,9)" d="M 472.971 1096.66 C 485.484 1095.82 541.314 1094.92 551.059 1098.15 C 561.268 1101.55 569.421 1125.96 573.742 1135.55 L 589.431 1135.85 L 587.591 1137.34 C 590.812 1139.32 594.932 1142.74 594.568 1146.57 C 591.782 1173.03 595.804 1189.44 617.028 1207.32 C 626.993 1215.72 655.143 1230.54 667.443 1233.57 C 680.092 1236.69 687.729 1239.95 694.754 1251.37 C 698.014 1248.57 696.886 1248.73 700.554 1248.16 C 682.335 1268.92 664.24 1289.8 646.271 1310.78 C 639.314 1318.92 612.214 1352.08 604.797 1357.07 L 462.757 1357.07 C 455.347 1344.82 446.628 1326.4 439.905 1313.21 L 398.204 1231.37 C 400.992 1225.21 405.245 1217.27 408.756 1211.4 C 430.707 1174.68 449.788 1132.36 472.971 1096.66 z"/><path transform="translate(0,0)" fill="rgb(57,69,78)" d="M 1320.22 1542.94 C 1336.65 1542.99 1367.79 1543.94 1383.18 1542.27 L 1383.01 1845.94 L 1320.45 1845.72 C 1321.47 1833.54 1320.94 1815.63 1320.93 1803.07 C 1320.81 1776.06 1320.83 1749.06 1320.99 1722.05 L 1241.16 1722.29 C 1227.07 1722.29 1209.61 1722.72 1195.75 1721.84 C 1196.33 1763.16 1195.57 1804.62 1196.05 1846 C 1175.09 1845.61 1152.95 1845.88 1132 1846.07 C 1133.22 1811.53 1132.15 1770.93 1132.15 1735.88 L 1132 1543.35 C 1149.11 1541.89 1178.33 1542.88 1196.17 1542.97 C 1195.48 1554.9 1195.93 1570.26 1195.93 1582.49 L 1195.84 1652.95 L 1195.94 1665.01 C 1237.44 1665 1279.5 1665.36 1320.95 1664.9 C 1320.79 1639.4 1320.77 1613.91 1320.9 1588.41 C 1320.94 1575.19 1321.55 1555.55 1320.22 1542.94 z"/><path transform="translate(0,0)" fill="rgb(0,2,2)" d="M 1132 1543.35 C 1149.11 1541.89 1178.33 1542.88 1196.17 1542.97 C 1195.48 1554.9 1195.93 1570.26 1195.93 1582.49 L 1195.84 1652.95 L 1193.64 1652.17 C 1193.02 1646.4 1192.94 1639.89 1192.97 1634.06 C 1193.12 1604.83 1192.25 1575.22 1193.05 1546.02 L 1135.79 1545.95 C 1134.21 1574.83 1135.04 1604.05 1135.17 1633 L 1135.46 1745.45 C 1135.7 1772.3 1133.4 1818.79 1135.88 1842.89 C 1154.64 1842.83 1173.92 1842.54 1192.63 1843.03 C 1193.55 1805.14 1191.93 1766.83 1193.31 1728.95 C 1193.4 1726.58 1194.61 1723.87 1195.75 1721.84 C 1196.33 1763.16 1195.57 1804.62 1196.05 1846 C 1175.09 1845.61 1152.95 1845.88 1132 1846.07 C 1133.22 1811.53 1132.15 1770.93 1132.15 1735.88 L 1132 1543.35 z"/><path transform="translate(0,0)" fill="rgb(57,69,78)" d="M 656.191 1543.03 L 721.008 1543.08 L 720.808 1673.07 C 720.804 1696.7 719.9 1721.29 722.38 1744.56 C 727.801 1808.03 841.409 1803.76 844.197 1743.12 C 847.231 1677.14 843.837 1609.1 845.532 1542.98 L 911.244 1543.01 L 911.255 1603.38 L 911.517 1681.38 C 911.595 1704.81 912.769 1741.77 907.311 1763.23 C 902.593 1782.14 892.946 1799.45 879.355 1813.42 C 823.999 1870.06 705.668 1861.63 669.468 1786.99 C 651.51 1749.96 656.238 1697.86 656.285 1656.75 L 656.191 1543.03 z"/><path transform="translate(0,0)" fill="rgb(57,69,78)" d="M 401.83 1544.9 L 402.991 1542.74 L 404.693 1542.85 C 418.218 1543.65 440.084 1542.78 454.204 1542.77 L 558.455 1542.86 C 565.836 1542.86 599.945 1542.42 604.56 1543.44 L 605.146 1544.74 C 604.054 1560.73 604.262 1585.88 604.71 1602.03 C 560.654 1600.63 510.478 1601.84 466.028 1601.88 L 465.978 1665.38 C 505.52 1663.38 553.89 1665.35 594.651 1664.77 C 593.246 1676.12 594.158 1709.73 594.244 1722.61 C 581.599 1721.78 565.255 1722.24 552.366 1722.25 C 523.599 1722.48 494.831 1722.4 466.066 1722.01 L 465.998 1788.27 L 604.614 1788.23 C 605.294 1807.11 604.239 1826.86 604.843 1846.15 C 539.022 1844.48 468.28 1845.79 402.079 1845.85 C 402.504 1832.19 402.303 1817.03 402.053 1803.3 C 400.49 1717.49 404.018 1630.58 401.83 1544.9 z"/><path transform="translate(0,0)" fill="rgb(0,2,2)" d="M 401.83 1544.9 L 402.991 1542.74 L 404.693 1542.85 C 418.218 1543.65 440.084 1542.78 454.204 1542.77 L 558.455 1542.86 C 565.836 1542.86 599.945 1542.42 604.56 1543.44 L 605.146 1544.74 C 599.581 1546.64 565.254 1546.03 557.187 1546.03 L 446.82 1546.02 C 434.597 1546.02 416.548 1545.09 405.437 1545.48 L 403.517 1549.51 L 401.83 1544.9 z"/><path transform="translate(0,0)" fill="rgb(57,69,78)" d="M 1435.79 1548.24 C 1435.91 1546.45 1436.15 1545.56 1436.5 1543.8 C 1444.82 1539.52 1575.84 1545 1594.63 1542.79 C 1598.25 1542.36 1657.69 1542.6 1660.81 1543.35 L 1661.35 1545.09 C 1660.79 1557.19 1660.34 1578.02 1661.75 1589.88 L 1569.48 1707.6 C 1550.65 1731.85 1524.9 1767 1504.67 1789.19 C 1518.55 1787.38 1546.79 1788.15 1561.88 1788.16 L 1666.64 1788.13 C 1666.17 1804.32 1665.78 1829.77 1666.7 1845.83 L 1430.09 1845.79 C 1430.28 1829.12 1430.29 1812.45 1430.11 1795.78 C 1478.79 1732.8 1530.14 1662.9 1580.49 1601.85 L 1488.12 1601.77 C 1473.46 1601.77 1450.4 1601.15 1436.36 1602.2 C 1435.85 1586.64 1436.97 1562.31 1435.79 1548.24 z"/><path transform="translate(0,0)" fill="rgb(0,2,2)" d="M 1435.79 1548.24 C 1435.91 1546.45 1436.15 1545.56 1436.5 1543.8 C 1444.82 1539.52 1575.84 1545 1594.63 1542.79 C 1598.25 1542.36 1657.69 1542.6 1660.81 1543.35 L 1661.35 1545.09 C 1634.79 1548.52 1446.37 1542.95 1439.44 1546.71 C 1438.87 1548.87 1438.53 1550.48 1438.13 1552.68 C 1436.85 1550.73 1436.69 1550.4 1435.79 1548.24 z"/><path transform="translate(0,0)" fill="rgb(254,156,9)" d="M 671.599 595.078 C 687.7 594.609 718.439 593.664 735.196 595.766 C 737.003 596.096 738.682 598.864 739.136 600.403 C 747.512 628.769 729.012 652.675 717.839 678.039 C 723.486 688.737 734.381 704.914 741.069 715.639 C 757.909 742.274 774.468 769.086 790.741 796.071 C 781.939 813.17 749.005 873.054 737.049 884.349 L 698.25 884.625 L 612.315 884.005 C 635.397 854.006 670.45 803.983 689.729 771.468 C 682.829 757.097 669.24 735.979 660.648 721.592 C 651.061 705.538 639.722 685.18 629.438 669.996 C 636.653 657.381 664.838 600.944 671.599 595.078 z"/><path transform="translate(0,0)" fill="rgb(254,201,9)" d="M 521.462 332.964 C 549.54 333.585 579.023 332.948 607.368 333.198 C 612.695 339.438 638.582 382.566 641.512 390.604 C 635.809 403.224 612.411 445.783 605.196 456.126 C 601.397 457.885 530.391 456.945 522.137 456.438 C 513.67 446.349 495.304 409.394 486.582 395.103 C 490.194 386.472 516.69 339.254 521.462 332.964 z"/><path transform="translate(0,0)" fill="rgb(254,201,9)" d="M 536.185 717.028 C 548.494 716.472 587.875 715.291 598.331 718.351 C 606.958 720.876 621.183 754.895 625.412 765.423 C 619.592 776.958 591.282 831.922 584.459 838.318 C 569.501 839.83 531.966 839.078 516.026 838.626 C 510.323 829.075 500.361 806.578 494.692 795.249 C 509.286 769.219 522.195 743.151 536.185 717.028 z"/><path transform="translate(0,0)" fill="rgb(57,69,78)" d="M 953.047 1679.79 L 1084.14 1679.8 C 1083.97 1697.45 1083.95 1715.09 1084.08 1732.74 C 1074.84 1731.61 1046.04 1732.11 1035.64 1732.2 C 1008.73 1732.45 979.719 1731.59 952.984 1732.64 L 953.047 1679.79 z"/><path transform="translate(0,0)" fill="rgb(254,156,9)" d="M 881.804 1225.99 L 920.132 1225.89 C 927.644 1231.66 929.491 1233.72 934.143 1241.54 C 933.555 1260.69 935.673 1273.97 933.878 1295.07 C 929.839 1301.6 926.515 1305.66 920.357 1310.19 C 908.991 1312.23 892.176 1311.26 880.305 1310.88 C 874.345 1306.75 871.556 1303.27 867.159 1297.8 C 866.11 1280.75 866.176 1257.24 867.101 1240.15 C 872.147 1233.74 874.756 1230.11 881.804 1225.99 z"/></svg>